<svg width="47" height="47" viewBox="0 0 47 47" fill="none" xmlns="http://www.w3.org/2000/svg">
<path d="M39.1667 13.7083H7.83334C5.67022 13.7083 3.91667 15.4619 3.91667 17.625V37.2083C3.91667 39.3714 5.67022 41.125 7.83334 41.125H39.1667C41.3298 41.125 43.0833 39.3714 43.0833 37.2083V17.625C43.0833 15.4619 41.3298 13.7083 39.1667 13.7083Z" stroke="#73C3F4" stroke-width="2" stroke-linecap="round" stroke-linejoin="round"/>
<path d="M31.3333 41.125V9.79167C31.3333 8.7529 30.9207 7.75668 30.1862 7.02216C29.4517 6.28765 28.4554 5.875 27.4167 5.875H19.5833C18.5446 5.875 17.5484 6.28765 16.8138 7.02216C16.0793 7.75668 15.6667 8.7529 15.6667 9.79167V41.125" stroke="#73C3F4" stroke-width="2" stroke-linecap="round" stroke-linejoin="round"/>
</svg>
