<svg width="138" height="63" viewBox="0 0 138 63" fill="none" xmlns="http://www.w3.org/2000/svg">
<circle cx="117.258" cy="20.7423" r="20.7423" fill="#A4E7ED"/>
<circle cx="26.6687" cy="20.7423" r="20.7423" fill="#73C3F4"/>
<circle cx="21.8712" cy="48.681" r="13.4049" fill="#DD71C6"/>
<circle cx="8.32515" cy="38.5215" r="8.32515" fill="#FFD900"/>
<path d="M23.8283 38.5862C23.9321 38.2878 24.0029 37.9789 24.0396 37.6652C24.0396 37.6652 25.0693 38.6623 25.5756 40.5602C26.0819 42.4581 26.6628 43.1151 27.5497 43.9476C28.4365 44.7801 31.1219 46.4978 33.8958 49.6227C36.6122 52.6886 40.1627 56.8557 40.2916 57.0064C40.2046 56.8277 37.3624 51.0454 35.803 48.9596C34.2204 46.8411 33.0835 45.0596 31.5707 44.3467C30.058 43.6339 28.9211 41.8524 28.9304 39.0521C28.9397 36.2518 27.4596 35.073 26.5572 34.548C25.6548 34.0231 22.8514 31.5225 24.3269 27.7142C25.8024 23.9059 33.2807 21.2656 35.1864 20.7577C37.0921 20.2499 41.3648 18.7992 41.3648 18.7992C41.3648 18.7992 36.9958 19.0011 34.2949 19.933C31.6375 20.8447 28.685 21.5856 28.5934 21.6088C28.64 21.5591 29.5113 20.5714 29.2752 19.5898C29.1821 19.1367 28.9239 18.7345 28.5507 18.4612C28.1776 18.1879 27.7161 18.0632 27.2561 18.1112C26.5448 18.2106 26.3429 18.3379 26.3118 18.3612C26.4003 18.2649 27.8649 16.7817 28.7735 16.1869C29.6821 15.592 30.7289 14.5763 31.0768 13.9752C31.0768 13.9752 27.5357 15.9384 26.0835 16.7833C24.6313 17.6282 22.9974 18.9312 21.3061 21.1631C19.6147 23.395 19.318 25.7091 19.6551 27.9084C19.9921 30.1076 20.9892 31.5676 21.407 32.3721C21.8248 33.1766 22.2053 34.5977 21.6943 35.3448C21.1834 36.0918 19.3227 38.4697 19.2016 40.4841C19.0804 42.4985 19.9238 43.9523 20.9349 45.2569C21.9459 46.5615 24.0411 50.4257 25.5244 54.2495C27.0076 58.0734 27.896 58.7536 27.896 58.7536C27.896 58.7536 26.6706 50.7426 25.7216 48.5029C24.7727 46.2633 23.5224 43.7006 23.2366 43.3776C22.9508 43.0545 22.0718 42.0621 22.6014 41.0044C23.131 39.9467 23.6358 39.1919 23.8283 38.5862ZM23.19 23.4555C23.19 23.4555 23.1372 21.7471 24.1219 20.8665C24.1219 20.8665 24.3471 22.2798 25.7325 22.5205C25.7356 22.5205 24.1297 23.3499 23.19 23.4555Z" fill="#4D85B0"/>
<path d="M39.3148 33.3552C39.1175 31.5753 38.911 29.8436 38.6935 28.2097C38.4761 26.5758 38.2183 25.0273 37.917 23.6372L37.8766 23.4524H35.9352L35.8653 23.5518C35.3838 24.2368 34.8946 24.9496 34.4115 25.675C33.9285 26.4003 33.4408 27.1629 32.95 27.955C32.4593 28.7471 31.9514 29.5873 31.4342 30.4617C30.917 31.3361 30.3703 32.2758 29.8018 33.2574L29.5953 33.6099H32.0321L32.0974 33.4857C32.3133 33.0819 32.5276 32.6874 32.7373 32.3115L33.2917 31.3159H36.895C36.9245 31.6126 36.954 31.9155 36.982 32.2276C37.0177 32.6128 37.0472 33.0042 37.069 33.3894L37.0814 33.6099H39.3381L39.3148 33.3552ZM34.3292 29.4537C34.7377 28.7486 35.1306 28.0963 35.5018 27.5123C35.8011 27.0381 36.0827 26.596 36.3468 26.1859C36.4151 26.6923 36.4788 27.1908 36.5347 27.677C36.6061 28.2765 36.6651 28.8729 36.7117 29.4537H34.3292Z" fill="#FFD900"/>
<path d="M51.7245 27.2964C52.0166 26.8424 52.1724 26.3142 52.1733 25.7743C52.1914 25.332 52.0649 24.8959 51.813 24.5318C51.5811 24.2169 51.2769 23.9623 50.9262 23.7894C50.5576 23.6093 50.162 23.4908 49.7551 23.4384C49.3466 23.3804 48.9345 23.3514 48.5219 23.3514C48.0467 23.3514 47.5667 23.3701 47.0961 23.4074C46.6386 23.4434 46.1841 23.5104 45.7356 23.6077L45.5943 23.6403L43.249 33.3971L43.4789 33.4484C43.9531 33.5529 44.4343 33.6224 44.9186 33.6565C45.4498 33.7 45.9624 33.7217 46.4407 33.7217C48.0933 33.7217 49.3808 33.4111 50.2692 32.7898C51.1855 32.15 51.6499 31.2367 51.6499 30.0672C51.6577 29.6237 51.5257 29.189 51.2725 28.8247C51.1055 28.5914 50.8945 28.393 50.6513 28.2407C51.0848 28.0243 51.4546 27.6989 51.7245 27.2964ZM48.758 27.3352C48.4979 27.3886 48.233 27.4151 47.9674 27.4144H46.916L47.4285 25.2991C47.5279 25.2898 47.6428 25.2789 47.7733 25.2711C47.9814 25.2571 48.1958 25.254 48.4023 25.2509C48.8099 25.2324 49.2165 25.3057 49.592 25.4653C49.7473 25.5398 49.9446 25.6905 49.9446 26.1378C49.9521 26.3338 49.9018 26.5276 49.8001 26.6953C49.6936 26.8567 49.5531 26.9929 49.3886 27.0945C49.1944 27.2117 48.9809 27.2933 48.758 27.3352ZM49.1649 31.0193C49.0095 31.2278 48.8059 31.3956 48.5716 31.5085C48.3054 31.6333 48.0214 31.7161 47.7298 31.7539C47.421 31.7968 47.1097 31.8191 46.7979 31.8207C46.5432 31.8207 46.3071 31.8207 46.099 31.8005L45.8552 31.7819L46.4764 29.2378H47.8867C48.4505 29.2378 48.8512 29.3341 49.0779 29.5252C49.1813 29.609 49.2641 29.7155 49.3198 29.8364C49.3756 29.9573 49.4028 30.0894 49.3994 30.2225C49.4105 30.5066 49.3281 30.7865 49.1649 31.0193Z" fill="#FFD900"/>
<path d="M58.7566 26.2636C58.3232 25.8598 57.7144 25.6547 56.9487 25.6547C56.2924 25.6457 55.6434 25.7932 55.0554 26.085C54.5036 26.3641 54.0143 26.7525 53.6172 27.2265C53.2178 27.7086 52.9098 28.2597 52.7087 28.8527C52.5017 29.4608 52.3968 30.0989 52.398 30.7413C52.3954 31.1382 52.4562 31.533 52.5782 31.9108C52.6976 32.289 52.9014 32.6352 53.1743 32.9231C53.4471 33.211 53.7818 33.4331 54.1531 33.5726C54.6098 33.7426 55.0947 33.8243 55.582 33.8134C56.0705 33.821 56.5582 33.7688 57.0341 33.6581C57.374 33.5813 57.7062 33.4737 58.0266 33.3366L58.1819 33.2667L57.994 31.42L57.7051 31.538C57.1313 31.7805 56.5155 31.9077 55.8926 31.9123C54.6858 31.9123 54.5227 31.3439 54.5165 30.9012C55.0477 30.8779 55.5788 30.8345 56.0976 30.7677C56.6596 30.7017 57.209 30.5541 57.7284 30.3297C58.199 30.1245 58.6127 29.8079 58.9336 29.4071C59.2706 28.9532 59.4407 28.397 59.4151 27.8322C59.4239 27.5389 59.3697 27.2471 59.2561 26.9764C59.1425 26.7058 58.9721 26.4627 58.7566 26.2636ZM56.6956 27.5061C56.958 27.5061 57.1413 27.5573 57.2298 27.6521C57.3195 27.7458 57.3701 27.8703 57.3712 28C57.3712 28.3758 57.1724 28.6414 56.7499 28.8371C56.3275 29.0328 55.6348 29.1586 54.7106 29.2083C54.7661 29.0342 54.8378 28.8657 54.925 28.7051C55.0494 28.4714 55.2063 28.2565 55.3909 28.0668C55.5644 27.8928 55.7687 27.7527 55.9935 27.6536C56.2146 27.5556 56.4538 27.5054 56.6956 27.5061Z" fill="#FFD900"/>
<path d="M61.9607 30.9075C61.9447 31.0196 61.9364 31.1327 61.9358 31.246C61.9353 31.34 61.9452 31.4338 61.9653 31.5256C61.9779 31.5909 62.008 31.6515 62.0523 31.7011C62.112 31.7619 62.1855 31.8072 62.2666 31.8331C62.4172 31.8804 62.5749 31.9015 62.7326 31.8953C62.9566 31.896 63.1798 31.8662 63.3958 31.8067C63.5959 31.7521 63.7925 31.6851 63.9844 31.6064L64.2764 31.4837L64.4472 33.3241L64.2919 33.3909C64.0179 33.5054 63.7354 33.5983 63.447 33.6689C63.0524 33.7633 62.6475 33.8082 62.2418 33.8025C61.3798 33.8025 60.7446 33.6021 60.3563 33.2077C59.968 32.8132 59.7723 32.2758 59.7723 31.6095C59.7728 31.3673 59.7899 31.1255 59.8236 30.8857C59.8618 30.6218 59.9137 30.36 59.9789 30.1014L61.4435 23.9354L63.7064 23.5767L63.1581 25.8349H65.5531L65.1042 27.6987H62.7077L62.0554 30.4198C62.0073 30.6124 61.9778 30.777 61.9607 30.9075Z" fill="#FFD900"/>
<path d="M67.5692 30.909C67.5539 31.0218 67.5456 31.1354 67.5444 31.2492C67.5447 31.3426 67.5546 31.4357 67.5739 31.5272C67.5871 31.5922 67.6171 31.6527 67.6608 31.7027C67.7214 31.7631 67.7954 31.8083 67.8767 31.8347C68.0273 31.882 68.1849 31.903 68.3427 31.8968C68.5673 31.8977 68.7909 31.8679 69.0074 31.8083C69.207 31.7536 69.4031 31.6867 69.5945 31.6079L69.888 31.4852L70.0589 33.3257L69.9036 33.394C69.6287 33.5072 69.3458 33.5996 69.0571 33.6705C68.663 33.7649 68.2587 33.8098 67.8534 33.8041C66.9899 33.8041 66.3562 33.6037 65.9679 33.2092C65.5796 32.8147 65.3824 32.2773 65.384 31.611C65.3844 31.3689 65.4015 31.1271 65.4352 30.8873C65.4735 30.6233 65.5253 30.3615 65.5905 30.1029L67.0551 23.937L69.3165 23.5782L68.7682 25.8349H71.1616L70.7143 27.6987H68.3163L67.6593 30.4151C67.6174 30.6139 67.5863 30.7786 67.5692 30.909Z" fill="#FFD900"/>
<path d="M77.2918 26.2682C77.0689 26.0621 76.8039 25.9069 76.5152 25.8132C76.1825 25.7064 75.8348 25.6539 75.4855 25.6579C74.8282 25.6488 74.1781 25.7963 73.5891 26.0881C73.0368 26.3679 72.5475 26.7574 72.1509 27.2327C71.7509 27.7147 71.4424 28.2659 71.2407 28.8589C71.0332 29.4663 70.9282 30.104 70.9301 30.7459C70.9273 31.1434 70.9882 31.5387 71.1103 31.917C71.2303 32.2949 71.4343 32.6408 71.7071 32.9286C71.9798 33.2164 72.3142 33.4387 72.6852 33.5789C73.1419 33.7488 73.6268 33.8305 74.114 33.8196C74.6026 33.8264 75.0902 33.7742 75.5662 33.6643C75.9058 33.5863 76.2379 33.4787 76.5587 33.3428L76.714 33.2729L76.5198 31.4262L76.231 31.5458C75.6574 31.7871 75.0422 31.9137 74.42 31.9186C73.2132 31.9186 73.0501 31.3501 73.0439 30.9075C73.5767 30.8857 74.1063 30.8407 74.6235 30.7739C75.1853 30.7089 75.7347 30.5624 76.2543 30.339C76.7278 30.135 77.1446 29.819 77.4688 29.418C77.806 28.9652 77.9771 28.4102 77.9534 27.8462C77.9629 27.5511 77.9087 27.2574 77.7945 26.9852C77.6803 26.7129 77.5089 26.4683 77.2918 26.2682ZM75.2307 27.5108C75.4917 27.5108 75.6765 27.562 75.7635 27.6661C75.8546 27.759 75.9058 27.8838 75.9064 28.014C75.9064 28.3883 75.7076 28.6554 75.2851 28.8511C74.8626 29.0468 74.17 29.1648 73.2381 29.213C73.2931 29.0392 73.3649 28.8712 73.4524 28.7113C73.5763 28.4769 73.7332 28.2614 73.9183 28.0714C74.0916 27.898 74.2954 27.7579 74.5194 27.6583C74.7433 27.5591 74.9858 27.5088 75.2307 27.5108Z" fill="#FFD900"/>
<path d="M84.334 26.0353L83.6972 27.8711L83.4782 27.795C83.2936 27.7308 83.104 27.682 82.9113 27.649C82.6735 27.6122 82.4329 27.5951 82.1922 27.5977C82.0338 27.5986 81.8756 27.6095 81.7185 27.6304C81.623 27.642 81.5281 27.6586 81.4343 27.6801L80.0163 33.6255H77.8419L79.6218 26.2325L79.7445 26.1906C80.1705 26.0506 80.604 25.9345 81.0429 25.8427C81.5455 25.7373 82.0577 25.6853 82.5712 25.6874C82.6939 25.6874 82.8275 25.6951 82.975 25.7091C83.1226 25.7231 83.2577 25.7402 83.3959 25.7588C83.5342 25.7775 83.6755 25.8054 83.7966 25.8334C83.9132 25.8601 84.0271 25.8975 84.1368 25.9452L84.334 26.0353Z" fill="#FFD900"/>
<path d="M50.7178 36.3729L50.5858 36.6944C49.8512 38.4899 49.0979 40.2107 48.3462 41.8198C47.5945 43.4288 46.7931 44.9711 45.9482 46.4248L45.8814 46.5413H43.8328L43.8033 46.3425C43.7287 45.8393 43.6573 45.3438 43.5874 44.8593C43.5175 44.3747 43.4523 43.873 43.3933 43.3776C43.3342 42.8821 43.2768 42.3665 43.2255 41.8477C43.1991 41.5759 43.1712 41.2917 43.1463 40.9997C42.6881 41.8369 42.2331 42.6538 41.7889 43.4366C41.2204 44.4399 40.6085 45.4557 39.9717 46.4357L39.9034 46.5413H37.8486L37.8299 46.3301C37.7569 45.5209 37.7041 44.7024 37.6746 43.8979C37.6451 43.0934 37.628 42.2655 37.628 41.4268C37.628 39.8986 37.6808 38.2755 37.7833 36.5997L37.7973 36.3807H40.0276L40.0121 36.6292C39.9562 37.5254 39.908 38.4215 39.8723 39.2897C39.8366 40.1579 39.8164 41.0603 39.8164 41.958V42.9722C39.8164 43.0499 39.8164 43.1275 39.8164 43.2067C39.9717 42.9365 40.1425 42.66 40.3056 42.3789C40.6163 41.8555 40.9176 41.3197 41.2158 40.7823C41.514 40.2449 41.806 39.6951 42.0902 39.1639C42.3744 38.6328 42.6431 38.1062 42.8947 37.6108L42.9599 37.4834H44.8625L44.8734 37.704C44.9014 38.2072 44.9371 38.7384 44.9775 39.2789C45.0178 39.8193 45.0691 40.3754 45.1235 40.9174C45.1778 41.4595 45.2353 41.9953 45.2912 42.5171C45.316 42.7563 45.3424 42.9831 45.3673 43.2145C45.5226 42.9132 45.6779 42.5932 45.8332 42.2686C46.1128 41.6769 46.3955 41.0603 46.6719 40.4344C46.9484 39.8085 47.2295 39.1453 47.4966 38.4883C47.7638 37.8313 48.0263 37.1728 48.2732 36.5267L48.3307 36.3714L50.7178 36.3729Z" fill="#FFD900"/>
<path d="M55.8709 39.1779C55.436 38.7741 54.8272 38.5691 54.0615 38.5691C53.4041 38.5606 52.7541 38.7086 52.1651 39.0008C51.6134 39.2801 51.1245 39.669 50.7285 40.144C50.3284 40.6256 50.0204 41.1769 49.8199 41.7701C49.6123 42.3775 49.5074 43.0152 49.5093 43.6571C49.5065 44.0546 49.5673 44.45 49.6894 44.8282C49.8089 45.2061 50.0124 45.552 50.2846 45.8401C50.5568 46.1282 50.8907 46.3509 51.2612 46.4916C51.7183 46.6603 52.203 46.7414 52.6901 46.7308C53.1797 46.7376 53.6683 46.6855 54.1454 46.5755C54.4852 46.4978 54.8174 46.3897 55.1378 46.2524L55.2932 46.1841L55.1037 44.3359L54.8148 44.4555C54.241 44.6979 53.6252 44.8251 53.0023 44.8298C51.7955 44.8298 51.6324 44.2613 51.6262 43.8187C52.1574 43.7954 52.6885 43.7503 53.2057 43.6851C53.768 43.6182 54.3178 43.4707 54.8381 43.2471C55.3115 43.043 55.7279 42.7263 56.0511 42.3246C56.3891 41.8694 56.5592 41.3113 56.5326 40.745C56.5407 40.4517 56.4858 40.16 56.3717 39.8897C56.2575 39.6194 56.0868 39.3767 55.8709 39.1779ZM53.8099 40.4204C54.0708 40.4204 54.2557 40.4717 54.3442 40.5757C54.4343 40.6692 54.4849 40.7938 54.4855 40.9236C54.4855 41.2979 54.2867 41.5651 53.8643 41.7608C53.4418 41.9565 52.7491 42.0823 51.8266 42.132C51.8815 41.9579 51.9527 41.7894 52.0393 41.6287C52.1634 41.3948 52.3203 41.1799 52.5053 40.9904C52.6791 40.8165 52.8833 40.6759 53.1079 40.5757C53.3283 40.4751 53.5676 40.4221 53.8099 40.4204Z" fill="#FFD900"/>
<path d="M61.0788 36.7069C61.084 36.8984 61.0473 37.0888 60.9714 37.2648C60.8955 37.4407 60.7822 37.598 60.6393 37.7257C60.3734 37.9754 60.0224 38.1143 59.6577 38.114C59.366 38.1195 59.0818 38.0221 58.8547 37.8391C58.7308 37.7357 58.633 37.6047 58.5691 37.4566C58.5051 37.3085 58.4769 37.1475 58.4866 36.9864C58.4815 36.7951 58.5173 36.6048 58.5915 36.4283C58.6656 36.2518 58.7766 36.0932 58.9168 35.9629C59.1775 35.7059 59.5293 35.5625 59.8953 35.5638C60.1903 35.5601 60.4772 35.6602 60.706 35.8464C60.8308 35.951 60.9294 36.0832 60.9942 36.2326C61.0589 36.3819 61.0878 36.5443 61.0788 36.7069Z" fill="#FFD900"/>
<path d="M60.456 38.7523L58.5813 46.5336H56.4101L58.2847 38.7523H60.456Z" fill="#FFD900"/>
<path d="M68.1611 39.1158C67.7962 38.9217 67.4039 38.7839 66.9978 38.7073C66.6076 38.6284 66.2108 38.5873 65.8127 38.5846C65.1054 38.5763 64.4028 38.7001 63.7408 38.9496C63.1413 39.1773 62.594 39.5239 62.1318 39.9684C61.6826 40.4094 61.3289 40.9381 61.0927 41.5216C60.8439 42.141 60.7189 42.8032 60.7247 43.4708C60.7247 44.2629 60.9452 44.9105 61.3785 45.3951C61.8119 45.8797 62.4921 46.1375 63.379 46.1375C63.6814 46.1386 63.9823 46.0952 64.272 46.0086C64.3652 45.9806 64.4553 45.9511 64.5407 45.9201C64.4381 46.2764 64.2412 46.5983 63.9707 46.8519C63.6601 47.1284 63.1941 47.2682 62.5729 47.2682C62.2098 47.2732 61.8477 47.2288 61.4966 47.1362C61.2101 47.0594 60.935 46.9456 60.6781 46.7976L60.4513 46.6625L59.6577 48.4719L59.8487 48.5744C60.1947 48.753 60.5593 48.8931 60.9359 48.9922C61.3925 49.109 61.8624 49.1654 62.3337 49.1599C62.9456 49.1721 63.5558 49.0936 64.1447 48.9269C64.6198 48.7871 65.0604 48.5496 65.4384 48.2296C65.7974 47.9128 66.0862 47.5245 66.2864 47.0896C66.5088 46.6064 66.6806 46.1016 66.799 45.583L68.3226 39.1981L68.1611 39.1158ZM63.7952 44.3048C63.4504 44.3048 63.219 44.2209 63.087 44.047C62.9274 43.8033 62.8511 43.5145 62.8695 43.2238C62.8669 42.8581 62.9327 42.4952 63.0637 42.1537C63.1877 41.8321 63.3716 41.5369 63.6057 41.284C63.848 41.0237 64.1424 40.8173 64.4696 40.6782C64.7968 40.539 65.1497 40.4703 65.5052 40.4763C65.6205 40.4765 65.7357 40.4842 65.85 40.4996L65.0268 43.9165C64.8621 44.03 64.6822 44.12 64.4926 44.1837C64.2686 44.263 64.0328 44.304 63.7952 44.3048Z" fill="#FFD900"/>
<path d="M75.7234 41.1815C75.72 41.6301 75.6616 42.0765 75.5495 42.5109L74.5834 46.5336H72.409L73.358 42.5808C73.403 42.3727 73.4496 42.1537 73.4962 41.9301C73.5378 41.7392 73.5596 41.5445 73.5614 41.3492C73.5706 41.1216 73.5009 40.8977 73.3642 40.7155C73.2198 40.5291 72.8781 40.4903 72.6171 40.4903C72.4427 40.4907 72.2687 40.5058 72.0968 40.5353C71.971 40.5586 71.8545 40.5835 71.7474 40.6114L70.3496 46.5336H68.1752L70.8155 35.5203L73.0753 35.1615L72.2211 38.7337L72.4711 38.684C72.6994 38.6396 72.9313 38.6173 73.1638 38.6172C73.5525 38.6086 73.9392 38.6735 74.3038 38.8083C74.6112 38.9253 74.8883 39.1101 75.1146 39.3488C75.3315 39.5864 75.4909 39.8707 75.5805 40.1797C75.6779 40.5046 75.726 40.8423 75.7234 41.1815Z" fill="#FFD900"/>
<path d="M78.6942 44.207L78.674 44.457C78.6115 45.2488 78.389 46.0197 78.0201 46.723C77.6565 47.4299 77.2153 48.0941 76.7046 48.7033L76.6036 48.8213L74.962 48.3072L75.1266 48.0494C75.4848 47.4867 75.7821 46.8874 76.0134 46.2618C76.2386 45.6714 76.3798 45.0524 76.4328 44.4228L76.4499 44.207H78.6942Z" fill="#FFD900"/>
<path d="M86.3063 36.373L83.8725 46.5336H81.6313L84.0651 36.373H86.3063Z" fill="#FFD900"/>
<path d="M93.1186 41.1535C93.1176 41.3729 93.1005 41.592 93.0674 41.8089C93.0348 42.0326 92.9944 42.264 92.9462 42.5001L91.9786 46.5382H89.8042L90.7361 42.587C90.7812 42.3851 90.8278 42.1754 90.8744 41.9658C90.9162 41.7761 90.9427 41.5834 90.9536 41.3896C90.9714 41.1549 90.9066 40.9214 90.7703 40.7295C90.6554 40.5742 90.3882 40.4996 89.9937 40.4996C89.7114 40.4957 89.4295 40.5239 89.1535 40.5835L87.7401 46.5429H85.5657L87.3441 39.1173L87.473 39.0785C87.8504 38.9651 88.2884 38.8579 88.773 38.7585C89.3064 38.6528 89.8491 38.6007 90.3929 38.6032C91.3139 38.6032 92.005 38.8378 92.4508 39.3037C92.8965 39.7696 93.1186 40.3862 93.1186 41.1535Z" fill="#FFD900"/>
<path d="M100.615 39.049L99.8246 40.8304L99.6118 40.7357C99.4409 40.6622 99.2649 40.6009 99.0853 40.5524C98.8581 40.4974 98.6248 40.4718 98.391 40.4763C98.052 40.4713 97.7167 40.5469 97.4126 40.6969C97.1246 40.8413 96.8714 41.0464 96.6702 41.2979C96.4565 41.5722 96.2948 41.8833 96.1934 42.2158C96.078 42.5874 96.0204 42.9745 96.0225 43.3636C96.0203 43.5676 96.0438 43.7711 96.0924 43.9693C96.1311 44.1319 96.203 44.2847 96.3036 44.4182C96.4036 44.546 96.5369 44.6438 96.6888 44.7008C96.9072 44.7798 97.1385 44.8167 97.3706 44.8096C97.6585 44.8101 97.9449 44.7704 98.2217 44.6915C98.44 44.6345 98.6522 44.5564 98.8554 44.4586L99.1661 44.3032L99.3571 46.195L99.2095 46.2649C98.9221 46.3944 98.6238 46.4983 98.318 46.5755C97.9051 46.6841 97.4792 46.7364 97.0522 46.7308C96.5684 46.7409 96.0873 46.6565 95.6358 46.4823C95.2525 46.3302 94.907 46.0965 94.6231 45.7974C94.3518 45.5034 94.1482 45.1535 94.0267 44.7723C93.8993 44.3706 93.8364 43.9512 93.8404 43.5298C93.8368 42.8872 93.9418 42.2487 94.151 41.6412C94.3499 41.0605 94.6566 40.5225 95.0549 40.0554C95.4545 39.5935 95.9487 39.2227 96.504 38.9682C97.1147 38.6951 97.778 38.5594 98.447 38.5706C98.7977 38.5683 99.1478 38.6006 99.4922 38.6669C99.8055 38.7288 100.111 38.8257 100.402 38.9558L100.615 39.049Z" fill="#FFD900"/>
<path d="M44.1949 51.7366C44.2477 51.8329 44.3083 51.9509 44.3766 52.0907C44.445 52.232 44.5164 52.3842 44.591 52.5489C44.6655 52.7135 44.7385 52.8797 44.8115 53.0521C44.8845 53.2245 44.9513 53.3845 45.0165 53.5351L45.2215 53.0521C45.2945 52.8797 45.3675 52.7119 45.4421 52.5489C45.5166 52.3858 45.5865 52.2382 45.6564 52.0907C45.7263 51.9431 45.7838 51.8329 45.8366 51.7366H46.4578C46.4873 51.9369 46.5137 52.1606 46.5386 52.4091C46.5634 52.6576 46.5852 52.9154 46.6038 53.1857C46.6225 53.4559 46.6411 53.723 46.6566 53.9933C46.6722 54.2635 46.6861 54.5167 46.697 54.7559H46.0354C46.0276 54.4623 46.0152 54.1424 46.0012 53.7976C45.9872 53.4528 45.9655 53.1033 45.936 52.7523C45.8832 52.875 45.8257 53.0086 45.7605 53.1577C45.6952 53.3068 45.6331 53.4528 45.571 53.6019C45.5089 53.751 45.4483 53.8908 45.3893 54.0259L45.2339 54.3722H44.7587L44.6111 54.0259C44.5521 53.8903 44.4916 53.7489 44.4294 53.6019C44.3657 53.4466 44.3036 53.3052 44.2384 53.1577L44.0644 52.7523C44.0354 53.1033 44.0137 53.4518 43.9992 53.7976C43.9852 54.1424 43.9728 54.4623 43.965 54.7559H43.3018C43.3143 54.5167 43.3283 54.2635 43.3438 53.9933C43.3593 53.723 43.378 53.4543 43.3966 53.1857C43.4152 52.917 43.437 52.6591 43.4618 52.4091C43.4867 52.159 43.5131 51.9431 43.5426 51.7366H44.1949Z" fill="#55A301"/>
<path d="M47.1456 53.6267C47.1418 53.4443 47.1734 53.2628 47.2388 53.0925C47.2943 52.9501 47.3784 52.8206 47.4857 52.7119C47.5848 52.6112 47.7038 52.5324 47.8352 52.4805C47.9648 52.4296 48.1028 52.4032 48.2421 52.4029C48.3853 52.3948 48.5285 52.4173 48.6624 52.4687C48.7962 52.5201 48.9177 52.5993 49.0187 52.7011C49.223 52.9459 49.3243 53.2605 49.3014 53.5786C49.3014 53.6159 49.3014 53.6578 49.3014 53.7028C49.3014 53.7479 49.3014 53.7867 49.292 53.8224H47.8212C47.8275 53.8847 47.8475 53.9449 47.8797 53.9986C47.9119 54.0523 47.9556 54.0982 48.0076 54.1331C48.1396 54.218 48.295 54.2593 48.4518 54.2511C48.5696 54.2512 48.6871 54.2403 48.8028 54.2185C48.8993 54.2023 48.9936 54.1752 49.0839 54.1377L49.1709 54.6642C49.1263 54.6866 49.0794 54.7043 49.0311 54.717C48.9673 54.7358 48.9025 54.7508 48.837 54.7621C48.7615 54.7769 48.6853 54.7877 48.6087 54.7947C48.5277 54.804 48.4463 54.8087 48.3648 54.8087C48.1815 54.8123 47.9992 54.7812 47.8274 54.717C47.6845 54.6621 47.5552 54.5768 47.4485 54.467C47.3475 54.3591 47.2716 54.2302 47.2264 54.0896C47.1749 53.9406 47.1477 53.7843 47.1456 53.6267ZM48.6692 53.3782C48.6658 53.3256 48.6564 53.2735 48.6413 53.2229C48.6262 53.1717 48.6008 53.1242 48.5667 53.0831C48.5322 53.0415 48.4894 53.0077 48.4409 52.9837C48.3818 52.9558 48.3168 52.9425 48.2514 52.9449C48.187 52.9437 48.123 52.9559 48.0635 52.9806C48.0135 53.0043 47.9691 53.0381 47.933 53.08C47.898 53.1217 47.8711 53.1697 47.8538 53.2214C47.8349 53.2717 47.8209 53.3237 47.8119 53.3767L48.6692 53.3782Z" fill="#55A301"/>
<path d="M51.8208 54.6798C51.7633 54.6968 51.6965 54.7139 51.6204 54.7295C51.5443 54.745 51.4651 54.759 51.3828 54.7714C51.3005 54.7838 51.2166 54.7916 51.1312 54.7993C51.0457 54.8071 50.9634 54.8102 50.8842 54.8102C50.7124 54.8127 50.5415 54.7849 50.3795 54.7279C50.2389 54.6768 50.1112 54.5957 50.0051 54.4903C49.9018 54.3835 49.8224 54.2559 49.7722 54.116C49.716 53.9575 49.6886 53.7902 49.6914 53.6221C49.6891 53.4518 49.7127 53.2821 49.7613 53.1189C49.8023 52.98 49.8704 52.8507 49.9617 52.7383C50.0479 52.634 50.1575 52.5515 50.2816 52.4976C50.4189 52.4408 50.5664 52.4128 50.7149 52.4153C50.7964 52.4146 50.8778 52.4234 50.9572 52.4417C51.0308 52.4598 51.1026 52.4848 51.1716 52.5162V51.4803L51.8208 51.3747V54.6798ZM50.353 53.5926C50.3446 53.764 50.392 53.9335 50.4882 54.0756C50.5348 54.1365 50.5958 54.185 50.6657 54.2167C50.7356 54.2484 50.8123 54.2624 50.8889 54.2573C50.9463 54.2573 51.0007 54.2573 51.0442 54.2573C51.0877 54.2573 51.1343 54.248 51.1653 54.2418V53.0614C51.117 53.0323 51.0647 53.0103 51.01 52.9962C50.9452 52.9789 50.8783 52.97 50.8112 52.9697C50.5058 52.9656 50.353 53.1727 50.353 53.591V53.5926Z" fill="#55A301"/>
<path d="M53.1394 51.8018C53.1423 51.8543 53.1335 51.9067 53.1136 51.9553C53.0938 52.0039 53.0633 52.0475 53.0245 52.0829C52.9494 52.149 52.8528 52.1854 52.7527 52.1854C52.6527 52.1854 52.556 52.149 52.4809 52.0829C52.4064 52.0084 52.3645 51.9072 52.3645 51.8018C52.3645 51.6964 52.4064 51.5953 52.4809 51.5207C52.556 51.4546 52.6527 51.4182 52.7527 51.4182C52.8528 51.4182 52.9494 51.4546 53.0245 51.5207C53.0633 51.5561 53.0938 51.5997 53.1136 51.6483C53.1335 51.6969 53.1423 51.7494 53.1394 51.8018ZM53.0789 54.7528H52.4266V52.4634H53.0758L53.0789 54.7528Z" fill="#55A301"/>
<path d="M53.5805 53.6081C53.5796 53.4494 53.6064 53.2917 53.6597 53.1422C53.7098 52.9987 53.7895 52.8674 53.8936 52.7566C53.9977 52.6459 54.1238 52.5582 54.2638 52.4992C54.4206 52.4334 54.5893 52.4012 54.7593 52.4044C54.8719 52.4034 54.9844 52.4144 55.0948 52.437C55.1964 52.4587 55.2957 52.4899 55.3914 52.5302L55.2563 53.049C55.1908 53.0244 55.1239 53.0036 55.0559 52.9868C54.9759 52.9692 54.8941 52.9609 54.8121 52.962C54.7316 52.9558 54.6508 52.9687 54.5763 52.9998C54.5018 53.0308 54.4357 53.0791 54.3834 53.1406C54.2843 53.2751 54.2344 53.4396 54.2421 53.6065C54.2313 53.7768 54.2778 53.9457 54.3741 54.0865C54.4335 54.1487 54.5064 54.1964 54.5872 54.2257C54.6681 54.2551 54.7546 54.2654 54.84 54.2557C54.9243 54.2549 55.0085 54.2477 55.0917 54.234C55.1771 54.2215 55.2607 54.198 55.3402 54.1641L55.4318 54.6953C55.3408 54.7327 55.246 54.7603 55.1491 54.7776C55.0259 54.8021 54.9005 54.8141 54.7748 54.8133C54.5903 54.8178 54.4067 54.7862 54.2343 54.7201C54.093 54.6634 53.9658 54.5765 53.8616 54.4654C53.7634 54.3553 53.6907 54.2248 53.6488 54.0834C53.6024 53.9292 53.5793 53.769 53.5805 53.6081Z" fill="#55A301"/>
<path d="M56.5794 52.4029C56.7418 52.3988 56.9038 52.4208 57.0593 52.4681C57.1767 52.5036 57.2834 52.5676 57.3699 52.6545C57.4457 52.7388 57.4991 52.8408 57.5252 52.9511C57.5589 53.0777 57.5751 53.2084 57.5734 53.3394V54.6891C57.4802 54.7093 57.3513 54.7326 57.1866 54.7605C56.9877 54.7903 56.7867 54.8038 56.5856 54.8009C56.45 54.8024 56.3146 54.7894 56.1818 54.7621C56.0711 54.7397 55.9657 54.6965 55.8711 54.6347C55.7854 54.5756 55.7164 54.4954 55.6708 54.4017C55.6211 54.2905 55.5972 54.1694 55.6009 54.0476C55.5971 53.9296 55.625 53.8127 55.6817 53.709C55.7337 53.618 55.808 53.5416 55.8975 53.4869C55.9933 53.4292 56.0984 53.3888 56.2082 53.3674C56.3271 53.3422 56.4484 53.3297 56.57 53.3301C56.6447 53.3294 56.7194 53.333 56.7937 53.341C56.846 53.3467 56.8979 53.3561 56.949 53.3689V53.3083C56.9514 53.2596 56.9438 53.211 56.9267 53.1653C56.9096 53.1196 56.8834 53.0779 56.8496 53.0427C56.7506 52.9651 56.6253 52.929 56.5002 52.9418C56.391 52.9422 56.282 52.9505 56.174 52.9666C56.0793 52.9796 55.9862 53.002 55.896 53.0334L55.8137 52.5116C55.8601 52.4966 55.9073 52.4842 55.955 52.4743C56.0109 52.4619 56.073 52.4494 56.1398 52.4401C56.2066 52.4308 56.2765 52.4199 56.3511 52.4137C56.4269 52.406 56.5031 52.4024 56.5794 52.4029ZM56.6322 54.3008C56.6959 54.3008 56.7564 54.3008 56.8154 54.3008C56.8617 54.2993 56.9079 54.2951 56.9537 54.2884V53.7914C56.9273 53.7914 56.8884 53.7805 56.8372 53.7743C56.7893 53.7684 56.741 53.7652 56.6927 53.765C56.6351 53.7653 56.5776 53.7689 56.5203 53.7758C56.4713 53.7822 56.4236 53.7964 56.379 53.8178C56.3387 53.8364 56.3048 53.8666 56.2816 53.9044C56.2584 53.9423 56.2469 53.9862 56.2485 54.0305C56.244 54.0718 56.2512 54.1136 56.2694 54.1509C56.2875 54.1883 56.3158 54.2198 56.3511 54.2418C56.4379 54.2859 56.5349 54.3062 56.6322 54.3008Z" fill="#55A301"/>
<path d="M59.0786 54.7978C58.9237 54.7997 58.7693 54.7788 58.6205 54.7357C58.5162 54.707 58.4203 54.6537 58.3409 54.5803C58.2723 54.5119 58.224 54.426 58.2011 54.3319C58.1756 54.2245 58.1636 54.1144 58.1654 54.0041V51.4803L58.813 51.3747V53.8706C58.8125 53.9227 58.8172 53.9747 58.827 54.0259C58.8333 54.0688 58.8504 54.1094 58.8767 54.1439C58.905 54.1791 58.9419 54.2064 58.9839 54.2231C59.0435 54.2461 59.1064 54.2592 59.1703 54.262L59.0786 54.7978Z" fill="#55A301"/>
<path d="M62.657 52.0581C62.6911 52.1777 62.73 52.3112 62.7719 52.4619C62.8138 52.6125 62.8589 52.7647 62.907 52.9278C62.9552 53.0909 63.0033 53.2478 63.0515 53.4077C63.0996 53.5677 63.1493 53.7184 63.1959 53.8519C63.2332 53.6966 63.272 53.5413 63.3108 53.3674C63.3497 53.1934 63.3885 53.0132 63.4227 52.8284C63.4568 52.6436 63.4926 52.4572 63.5252 52.2724C63.5578 52.0876 63.5904 51.9105 63.6199 51.7397H64.325C64.2215 52.245 64.104 52.757 63.9725 53.2757C63.841 53.7945 63.6971 54.2884 63.5407 54.7574H62.9195C62.817 54.4778 62.7191 54.1859 62.6228 53.8799C62.5265 53.5739 62.4333 53.2664 62.3401 52.9589C62.2469 53.2695 62.1553 53.5801 62.0621 53.8799C61.9689 54.1796 61.8711 54.4778 61.7701 54.7574H61.1489C60.9936 54.2904 60.8502 53.7965 60.7187 53.2757C60.5872 52.7549 60.4696 52.2429 60.3661 51.7397H61.1023C61.1318 51.9105 61.1629 52.0891 61.1986 52.2724C61.2343 52.4557 61.27 52.642 61.3073 52.8284C61.3446 53.0148 61.3834 53.1934 61.4238 53.3674C61.4642 53.5413 61.503 53.7028 61.5434 53.8519C61.5962 53.709 61.6474 53.5584 61.6987 53.3984C61.75 53.2384 61.795 53.0785 61.8416 52.9201C61.8882 52.7616 61.9317 52.6094 61.9705 52.4541C62.0093 52.2988 62.045 52.1745 62.0777 52.0581H62.657Z" fill="#55A301"/>
<path d="M64.4601 53.6267C64.4563 53.4443 64.4879 53.2628 64.5533 53.0924C64.6094 52.9504 64.6933 52.821 64.8002 52.7119C64.8998 52.6112 65.0194 52.5324 65.1512 52.4805C65.2808 52.4294 65.4188 52.4031 65.5582 52.4029C65.7013 52.3947 65.8446 52.4171 65.9785 52.4685C66.1123 52.5199 66.2338 52.5992 66.3347 52.7011C66.539 52.9459 66.6403 53.2605 66.6174 53.5786C66.6174 53.6159 66.6174 53.6578 66.6174 53.7028C66.6174 53.7479 66.6174 53.7867 66.6096 53.8224H65.1373C65.1438 53.8848 65.1641 53.945 65.1966 53.9987C65.2291 54.0524 65.273 54.0983 65.3252 54.133C65.4571 54.2182 65.6126 54.2595 65.7694 54.2511C65.8866 54.2512 66.0036 54.2402 66.1188 54.2185C66.2153 54.2023 66.3096 54.1752 66.4 54.1377L66.4869 54.6642C66.4423 54.6866 66.3954 54.7043 66.3471 54.717C66.2839 54.7358 66.2196 54.7508 66.1546 54.7621C66.0831 54.7755 66.007 54.7864 65.9262 54.7947C65.8453 54.8039 65.7639 54.8086 65.6824 54.8087C65.4986 54.8124 65.3157 54.7813 65.1435 54.717C65.0005 54.6621 64.8712 54.5768 64.7645 54.467C64.6635 54.3591 64.5877 54.2302 64.5424 54.0896C64.4912 53.9405 64.4634 53.7843 64.4601 53.6267ZM65.9837 53.3782C65.981 53.3255 65.9716 53.2733 65.9558 53.2229C65.9406 53.1721 65.9158 53.1246 65.8828 53.0831C65.8474 53.0418 65.8041 53.008 65.7554 52.9837C65.6963 52.9556 65.6313 52.9423 65.5659 52.9449C65.502 52.9435 65.4385 52.9557 65.3795 52.9806C65.3291 53.0034 65.2845 53.0374 65.2491 53.08C65.213 53.1213 65.1855 53.1693 65.1683 53.2214C65.15 53.2719 65.136 53.3238 65.1264 53.3767L65.9837 53.3782Z" fill="#55A301"/>
<path d="M67.8215 51.8018C67.8244 51.8543 67.8155 51.9067 67.7957 51.9553C67.7758 52.0039 67.7453 52.0475 67.7065 52.0829C67.6314 52.149 67.5348 52.1854 67.4347 52.1854C67.3347 52.1854 67.2381 52.149 67.1629 52.0829C67.0884 52.0084 67.0465 51.9072 67.0465 51.8018C67.0465 51.6964 67.0884 51.5953 67.1629 51.5207C67.2381 51.4546 67.3347 51.4182 67.4347 51.4182C67.5348 51.4182 67.6314 51.4546 67.7065 51.5207C67.7453 51.5561 67.7758 51.5997 67.7957 51.6483C67.8155 51.6969 67.8244 51.7494 67.8215 51.8018ZM67.7609 54.7528H67.1117V52.4634H67.7609V54.7528Z" fill="#55A301"/>
<path d="M70.3467 54.467C70.3467 54.8408 70.2519 55.1183 70.0625 55.2995C69.873 55.4807 69.5789 55.5718 69.1803 55.5728C69.0402 55.5728 68.9004 55.5603 68.7625 55.5356C68.6308 55.5127 68.501 55.48 68.3742 55.4377L68.4876 54.8926C68.591 54.9344 68.6981 54.9667 68.8075 54.9889C68.9334 55.0132 69.0614 55.0246 69.1896 55.023C69.2599 55.0302 69.3309 55.0232 69.3984 55.0024C69.4659 54.9816 69.5285 54.9474 69.5825 54.9019C69.6609 54.8178 69.7028 54.7061 69.699 54.5913V54.5089C69.6298 54.5404 69.5574 54.5643 69.4831 54.5804C69.4034 54.597 69.3223 54.6053 69.2409 54.6052C69.1066 54.6136 68.9721 54.5928 68.8466 54.5443C68.7212 54.4958 68.6077 54.4207 68.514 54.3241C68.3347 54.1029 68.2449 53.8225 68.2624 53.5382C68.259 53.3794 68.2854 53.2214 68.34 53.0723C68.3899 52.9388 68.4678 52.8176 68.5683 52.7166C68.6739 52.6159 68.7993 52.5381 68.9364 52.4883C69.0946 52.4328 69.2612 52.4055 69.4288 52.4075C69.5064 52.4075 69.5841 52.4075 69.6695 52.4184C69.7549 52.4293 69.8357 52.4355 69.9165 52.4479C69.9972 52.4604 70.0718 52.4728 70.1494 52.4883C70.2271 52.5038 70.2892 52.5209 70.3467 52.5396V54.467ZM68.924 53.5351C68.924 53.8975 69.0705 54.0787 69.3635 54.0787C69.4267 54.0798 69.4896 54.0709 69.5499 54.0523C69.6039 54.0383 69.656 54.018 69.7052 53.9917V52.9558C69.6726 52.9558 69.6353 52.9449 69.5919 52.9403C69.5401 52.9375 69.4883 52.9375 69.4365 52.9403C69.3636 52.9347 69.2904 52.9473 69.2235 52.9768C69.1566 53.0063 69.098 53.0519 69.0529 53.1096C68.9654 53.2339 68.9202 53.3831 68.924 53.5351Z" fill="#55A301"/>
<path d="M70.9572 54.7543V51.4803L71.6064 51.3747V52.4727C71.7244 52.4343 71.8473 52.4134 71.9714 52.4106C72.1301 52.4062 72.2882 52.432 72.4373 52.4867C72.5527 52.5319 72.6544 52.6063 72.7324 52.7026C72.8085 52.7997 72.8616 52.9128 72.8877 53.0334C72.9201 53.1735 72.9357 53.3168 72.9343 53.4605V54.7543H72.2851V53.5398C72.297 53.3872 72.2692 53.2341 72.2044 53.0956C72.1709 53.049 72.1257 53.0121 72.0732 52.9889C72.0208 52.9657 71.9631 52.957 71.9062 52.9635C71.8514 52.9638 71.7969 52.969 71.7431 52.9791L71.6064 53.0117V54.7543H70.9572Z" fill="#55A301"/>
<path d="M73.4993 51.8934L74.1485 51.7894V52.4634H74.9251V53.0039H74.1485V53.8085C74.143 53.9221 74.1677 54.0352 74.22 54.1362C74.2531 54.1801 74.2973 54.2145 74.348 54.2358C74.3988 54.2571 74.4543 54.2645 74.5089 54.2573C74.5813 54.2574 74.6536 54.2506 74.7248 54.2371C74.7942 54.2256 74.8623 54.2074 74.9282 54.1828L75.0183 54.6891C74.9334 54.7227 74.8462 54.7502 74.7574 54.7714C74.6416 54.7966 74.5233 54.808 74.4048 54.8056C74.2551 54.8104 74.1058 54.7862 73.9653 54.7341C73.857 54.6922 73.7613 54.6232 73.6873 54.5338C73.6146 54.4433 73.5646 54.3368 73.5413 54.2231C73.5122 54.09 73.4981 53.954 73.4993 53.8178V51.8934Z" fill="#55A301"/>
<path d="M78.5598 54.1703V54.7543H76.5407V51.7366H77.2194V54.1703H78.5598Z" fill="#55A301"/>
<path d="M81.0926 53.605C81.094 53.7728 81.0678 53.9397 81.0149 54.0989C80.9664 54.2405 80.8892 54.3706 80.7882 54.481C80.6885 54.5877 80.5673 54.6719 80.4325 54.7279C80.1359 54.8438 79.8065 54.8438 79.5099 54.7279C79.3754 54.6722 79.2546 54.588 79.1558 54.481C79.0533 54.3708 78.9746 54.2407 78.9244 54.0989C78.8677 53.9405 78.8398 53.7732 78.8421 53.605C78.8399 53.4371 78.8683 53.2703 78.9259 53.1127C78.978 52.9716 79.0584 52.8426 79.162 52.7337C79.2628 52.6284 79.3845 52.5453 79.5192 52.4898C79.662 52.431 79.8152 52.4014 79.9697 52.4029C80.1256 52.4014 80.2803 52.431 80.4247 52.4898C80.5588 52.545 80.6795 52.6281 80.7788 52.7337C80.881 52.8429 80.9598 52.9719 81.0103 53.1127C81.0666 53.2706 81.0945 53.4373 81.0926 53.605ZM80.4309 53.605C80.4398 53.4386 80.3981 53.2735 80.3113 53.1313C80.2735 53.0762 80.2223 53.0316 80.1626 53.0017C80.1028 52.9719 80.0364 52.9577 79.9697 52.9604C79.9025 52.9577 79.8357 52.9719 79.7754 53.0018C79.7152 53.0316 79.6634 53.0762 79.6249 53.1313C79.5369 53.273 79.4946 53.4384 79.5037 53.605C79.495 53.7725 79.5373 53.9387 79.6249 54.0818C79.6626 54.138 79.7141 54.1836 79.7745 54.2143C79.8348 54.245 79.902 54.2598 79.9697 54.2573C80.0369 54.2599 80.1037 54.2451 80.1635 54.2144C80.2234 54.1836 80.2743 54.138 80.3113 54.0818C80.3977 53.9383 80.4393 53.7723 80.4309 53.605Z" fill="#55A301"/>
<path d="M82.2467 54.2884C82.3321 54.2935 82.4177 54.2813 82.4983 54.2526C82.523 54.2404 82.5434 54.2209 82.5567 54.1968C82.5701 54.1726 82.5757 54.145 82.5728 54.1175C82.5703 54.0883 82.56 54.0602 82.5431 54.0362C82.5262 54.0122 82.5032 53.9931 82.4765 53.9808C82.384 53.928 82.2868 53.8838 82.1861 53.8488C82.0836 53.81 81.992 53.7712 81.9096 53.7308C81.8318 53.6939 81.7605 53.6446 81.6984 53.5848C81.6392 53.5281 81.5931 53.4592 81.5633 53.3829C81.5289 53.2922 81.5126 53.1956 81.5151 53.0987C81.5121 53.0009 81.5322 52.9038 81.5737 52.8153C81.6153 52.7268 81.6772 52.6493 81.7543 52.5892C81.9463 52.4553 82.1776 52.3897 82.4113 52.4029C82.5458 52.4024 82.68 52.4148 82.812 52.4401C82.9175 52.4582 83.0214 52.4847 83.1226 52.5193L83.0108 53.0257C82.9298 52.9979 82.8474 52.9745 82.7639 52.9558C82.6659 52.9343 82.5659 52.9239 82.4657 52.9247C82.2622 52.9247 82.155 52.9822 82.155 53.0956C82.155 53.1189 82.1592 53.1421 82.1675 53.1639C82.1792 53.1881 82.1975 53.2086 82.2203 53.2229C82.2542 53.2465 82.2901 53.2673 82.3274 53.285C82.3725 53.3068 82.4299 53.3301 82.4983 53.3565C82.6196 53.3992 82.7374 53.4512 82.8508 53.5118C82.9327 53.5545 83.0072 53.6101 83.0714 53.6764C83.1237 53.7333 83.1624 53.8013 83.1848 53.8752C83.2079 53.9571 83.2189 54.0418 83.2174 54.1268C83.2226 54.227 83.2019 54.3268 83.1573 54.4166C83.1127 54.5063 83.0457 54.5831 82.9627 54.6394C82.7452 54.7681 82.4942 54.8287 82.242 54.8133C82.0712 54.8172 81.9005 54.7994 81.7341 54.7605C81.6388 54.7388 81.5454 54.7098 81.4546 54.6735L81.5633 54.147C81.6732 54.1903 81.7864 54.2246 81.9019 54.2495C82.0151 54.2746 82.1307 54.2876 82.2467 54.2884Z" fill="#55A301"/>
<path d="M84.3621 54.2884C84.4481 54.2934 84.5341 54.2813 84.6153 54.2527C84.64 54.2404 84.6604 54.2209 84.6738 54.1968C84.6871 54.1726 84.6927 54.145 84.6899 54.1175C84.6873 54.0883 84.6771 54.0602 84.6601 54.0362C84.6432 54.0122 84.6202 53.9931 84.5936 53.9809C84.5004 53.9281 84.4027 53.8839 84.3016 53.8488C84.2006 53.81 84.1074 53.7712 84.0251 53.7308C83.9477 53.6931 83.8765 53.6439 83.8139 53.5848C83.7557 53.5273 83.7097 53.4586 83.6788 53.3829C83.6451 53.292 83.6288 53.1956 83.6306 53.0987C83.6278 53.0008 83.6481 52.9036 83.6899 52.8151C83.7317 52.7266 83.7939 52.6492 83.8713 52.5892C84.0631 52.4549 84.2946 52.3892 84.5283 52.4029C84.6628 52.4024 84.797 52.4148 84.929 52.4401C85.0345 52.4584 85.1383 52.4849 85.2397 52.5194L85.1263 53.0257C85.0459 52.9977 84.964 52.9743 84.8809 52.9558C84.783 52.9343 84.6829 52.9239 84.5827 52.9247C84.3792 52.9247 84.2721 52.9822 84.2721 53.0956C84.271 53.119 84.2752 53.1424 84.2845 53.1639C84.2962 53.1882 84.3145 53.2086 84.3373 53.2229C84.3705 53.2469 84.4058 53.2677 84.4429 53.285C84.4879 53.3068 84.5454 53.3301 84.6153 53.3565C84.7365 53.3996 84.8543 53.4515 84.9679 53.5118C85.0497 53.5545 85.1242 53.6101 85.1884 53.6764C85.2396 53.7341 85.2782 53.8018 85.3018 53.8752C85.3249 53.9571 85.3359 54.0418 85.3344 54.1268C85.3397 54.227 85.319 54.3268 85.2743 54.4166C85.2297 54.5063 85.1627 54.5831 85.0797 54.6394C84.8622 54.7679 84.6112 54.8285 84.359 54.8133C84.1882 54.8172 84.0175 54.7994 83.8512 54.7605C83.7554 54.7385 83.6615 54.7095 83.57 54.6735L83.6788 54.147C83.7891 54.1905 83.9029 54.2248 84.0189 54.2495C84.1316 54.2746 84.2467 54.2876 84.3621 54.2884Z" fill="#55A301"/>
<path d="M88.2808 54.8149C87.7916 54.8149 87.4173 54.6782 87.161 54.4049C86.9048 54.1315 86.7743 53.7448 86.7743 53.2431C86.7709 53.015 86.811 52.7884 86.8923 52.5753C86.9654 52.3905 87.076 52.2229 87.2169 52.0829C87.3548 51.9449 87.5213 51.8389 87.7046 51.7723C87.9013 51.7012 88.109 51.666 88.3181 51.6682C88.4347 51.6673 88.5511 51.6767 88.666 51.6962C88.7589 51.7122 88.8507 51.7339 88.9409 51.7614C89.0077 51.7825 89.0731 51.808 89.1366 51.8375C89.1879 51.8639 89.2267 51.8841 89.25 51.8996L89.0543 52.4479C88.951 52.3943 88.8421 52.3522 88.7297 52.3221C88.5925 52.2849 88.4509 52.2672 88.3088 52.2693C88.2029 52.2685 88.0978 52.2864 87.9982 52.3221C87.8979 52.3561 87.807 52.413 87.7326 52.4883C87.6498 52.5738 87.5863 52.676 87.5462 52.788C87.4975 52.9304 87.4743 53.0803 87.4779 53.2307C87.4763 53.362 87.4915 53.493 87.5229 53.6205C87.5499 53.7332 87.6002 53.839 87.6705 53.9311C87.7423 54.0204 87.8344 54.0912 87.9391 54.1377C88.0656 54.1919 88.2023 54.2179 88.3399 54.2138C88.4287 54.2142 88.5174 54.2084 88.6054 54.1967C88.6831 54.1843 88.7608 54.1703 88.8136 54.1548C88.8666 54.1406 88.9186 54.1225 88.9689 54.1004L89.0947 54.0445L89.2826 54.5881C89.1553 54.6584 89.0189 54.7106 88.8772 54.7434C88.6823 54.7926 88.4819 54.8166 88.2808 54.8149Z" fill="#55A301"/>
<path d="M89.5216 53.6267C89.5175 53.4441 89.5497 53.2625 89.6163 53.0924C89.6719 52.9505 89.7553 52.8211 89.8617 52.7119C89.9613 52.6112 90.0809 52.5324 90.2127 52.4805C90.3423 52.4294 90.4803 52.4031 90.6196 52.4029C90.7628 52.3947 90.9061 52.4171 91.04 52.4685C91.1738 52.5199 91.2953 52.5992 91.3962 52.7011C91.6005 52.9459 91.7018 53.2605 91.6789 53.5786C91.6789 53.6159 91.6789 53.6578 91.6789 53.7028C91.6789 53.7479 91.6789 53.7867 91.6711 53.8224H90.1987C90.2056 53.8847 90.226 53.9448 90.2585 53.9984C90.2909 54.0521 90.3347 54.098 90.3867 54.133C90.5186 54.2182 90.6741 54.2595 90.8309 54.2511C90.9481 54.2512 91.0651 54.2403 91.1803 54.2185C91.2768 54.2025 91.3712 54.1754 91.4614 54.1377L91.5484 54.6642C91.5042 54.6864 91.4579 54.7041 91.4102 54.717C91.3464 54.7356 91.2815 54.7506 91.216 54.7621C91.1446 54.7755 91.0685 54.7864 90.9877 54.7947C90.9068 54.8039 90.8254 54.8086 90.7439 54.8087C90.5601 54.8123 90.3772 54.7812 90.205 54.717C90.0623 54.6625 89.9334 54.5771 89.8275 54.467C89.7255 54.3599 89.6495 54.2308 89.6054 54.0896C89.5529 53.9408 89.5246 53.7845 89.5216 53.6267ZM91.0468 53.3782C91.0435 53.3254 91.0336 53.2732 91.0172 53.2229C91.0021 53.1721 90.9773 53.1246 90.9442 53.0831C90.9088 53.0418 90.8655 53.008 90.8169 52.9837C90.7578 52.9556 90.6928 52.9423 90.6274 52.9449C90.5635 52.9439 90.5 52.9561 90.441 52.9806C90.3906 53.0034 90.346 53.0374 90.3106 53.08C90.2745 53.1213 90.247 53.1693 90.2298 53.2214C90.2115 53.2719 90.1975 53.3238 90.1879 53.3767L91.0468 53.3782Z" fill="#55A301"/>
<path d="M92.1743 52.5489C92.3142 52.5101 92.4563 52.48 92.5999 52.4588C92.7818 52.4302 92.9656 52.4162 93.1497 52.4169C93.3145 52.4126 93.4787 52.4383 93.6343 52.493C93.7548 52.5368 93.8618 52.6112 93.9449 52.7088C94.0196 52.8068 94.0726 52.9196 94.1002 53.0397C94.1326 53.1797 94.1482 53.3231 94.1468 53.4668V54.7605H93.4992V53.546C93.5111 53.3931 93.4822 53.2398 93.4153 53.1018C93.3799 53.0542 93.3325 53.0169 93.2779 52.9936C93.2233 52.9704 93.1635 52.9622 93.1047 52.9698C93.0581 52.9698 93.0099 52.9698 92.9571 52.9775C92.9043 52.9853 92.8577 52.9869 92.8173 52.9915V54.7543H92.1697L92.1743 52.5489Z" fill="#55A301"/>
<path d="M94.7168 51.8934L95.3644 51.7894V52.4634H96.141V53.0039H95.3644V53.8085C95.3594 53.9222 95.3846 54.0353 95.4374 54.1362C95.4705 54.1801 95.5147 54.2145 95.5655 54.2358C95.6162 54.2571 95.6717 54.2645 95.7263 54.2573C95.7987 54.2573 95.871 54.2506 95.9422 54.2371C96.0112 54.2259 96.0788 54.2077 96.1441 54.1828L96.2357 54.6891C96.1508 54.7227 96.0636 54.7502 95.9748 54.7714C95.859 54.7965 95.7407 54.808 95.6222 54.8056C95.4725 54.8106 95.3232 54.7863 95.1827 54.7341C95.0742 54.6918 94.9781 54.6229 94.9031 54.5338C94.8311 54.4429 94.7811 54.3366 94.7571 54.2231C94.7294 54.0898 94.7159 53.954 94.7168 53.8178V51.8934Z" fill="#55A301"/>
<path d="M96.4748 53.6267C96.4707 53.4441 96.5029 53.2625 96.5695 53.0925C96.6251 52.9505 96.7086 52.8211 96.8149 52.7119C96.9146 52.6112 97.0341 52.5324 97.166 52.4805C97.2955 52.4294 97.4336 52.4031 97.5729 52.4029C97.7161 52.3946 97.8594 52.417 97.9932 52.4684C98.1271 52.5198 98.2486 52.5991 98.3494 52.7011C98.5537 52.9459 98.655 53.2605 98.6321 53.5786C98.6321 53.6159 98.6321 53.6578 98.6321 53.7028C98.6321 53.7479 98.6321 53.7867 98.6243 53.8224H97.1411C97.148 53.8847 97.1684 53.9448 97.2008 53.9984C97.2333 54.0521 97.277 54.098 97.329 54.1331C97.4615 54.2213 97.6188 54.2649 97.7779 54.2573C97.8951 54.2574 98.0121 54.2465 98.1273 54.2247C98.2239 54.2088 98.3182 54.1817 98.4085 54.1439L98.4954 54.6704C98.4512 54.6926 98.4049 54.7103 98.3572 54.7232C98.2934 54.7418 98.2286 54.7569 98.1631 54.7683C98.0916 54.7817 98.0155 54.7926 97.9348 54.8009C97.8538 54.8102 97.7724 54.8148 97.6909 54.8149C97.5071 54.8185 97.3243 54.7874 97.152 54.7232C97.0093 54.6687 96.8804 54.5833 96.7746 54.4732C96.6725 54.3661 96.5965 54.237 96.5525 54.0958C96.5014 53.9446 96.4752 53.7862 96.4748 53.6267ZM98 53.3782C97.9967 53.3254 97.9868 53.2732 97.9705 53.2229C97.9553 53.1721 97.9305 53.1246 97.8975 53.0831C97.8621 53.0419 97.8188 53.0081 97.7701 52.9837C97.711 52.9556 97.646 52.9423 97.5806 52.9449C97.5167 52.9439 97.4533 52.9561 97.3943 52.9806C97.3438 53.0034 97.2992 53.0374 97.2638 53.08C97.2277 53.1213 97.2002 53.1693 97.183 53.2214C97.1648 53.2719 97.1507 53.3238 97.1411 53.3767L98 53.3782Z" fill="#55A301"/>
<path d="M100.507 53.0381C100.45 53.0241 100.381 53.0086 100.304 52.993C100.22 52.9758 100.135 52.9675 100.05 52.9682C100.002 52.9693 99.9529 52.9729 99.9045 52.9791C99.8609 52.9841 99.8178 52.9924 99.7755 53.0039V54.7543H99.1279V52.5799C99.2627 52.5332 99.4002 52.4944 99.5395 52.4634C99.7129 52.4258 99.89 52.4075 100.068 52.4091C100.103 52.4091 100.145 52.4091 100.193 52.4091C100.241 52.4091 100.293 52.4199 100.349 52.4277C100.405 52.4355 100.446 52.4432 100.504 52.4526C100.547 52.4614 100.589 52.4739 100.63 52.4898L100.507 53.0381Z" fill="#55A301"/>
<path d="M85.581 5.64417C85.581 5.64417 81.5972 10.0566 80.8735 14.2905C80.1497 18.5243 83.3134 23.5099 88.6019 26.1735C88.6019 26.1735 93.252 21.3588 91.8184 16.2459C90.3849 11.1329 85.3341 11.5834 85.581 5.64417Z" fill="#55A301"/>
<path d="M88.7696 24.9636C88.8508 24.0171 88.8545 23.0654 88.7805 22.1183C88.7133 21.1854 88.5799 20.2584 88.3813 19.3444C88.3378 19.1161 88.2695 18.8909 88.2167 18.6641L88.1344 18.324L88.0334 17.9885C87.9666 17.7633 87.8983 17.5396 87.8346 17.3129C87.771 17.0861 87.6793 16.8718 87.6001 16.6481L87.4867 16.3127C87.4479 16.2008 87.3982 16.0952 87.3563 15.9834C87.2677 15.7644 87.1823 15.5439 87.0969 15.3202C87.0115 15.0965 86.9059 14.8838 86.8158 14.6601C86.7257 14.4365 86.6294 14.2175 86.5424 13.9876C86.6977 14.1709 86.853 14.3604 87.0084 14.5514C87.0845 14.6461 87.1559 14.7455 87.2305 14.8418C87.3054 14.9381 87.3754 15.0382 87.4401 15.1416C87.569 15.3466 87.698 15.5547 87.8222 15.7628C87.8859 15.8669 87.9511 15.971 88.007 16.0735L88.1623 16.4027C88.2695 16.6217 88.3736 16.8438 88.473 17.0659C88.5724 17.288 88.6454 17.5319 88.7308 17.7555C88.7743 17.8704 88.8147 17.9869 88.8535 18.1034L88.9544 18.4575C89.015 18.6952 89.088 18.9235 89.1362 19.172C89.349 20.1351 89.4347 21.122 89.3909 22.1074C89.362 23.0897 89.1514 24.0581 88.7696 24.9636Z" fill="white"/>
<path d="M114.16 22.3916C114.16 22.3916 111.739 29.6914 107.435 33.2077C103.131 36.724 95.504 36.3434 89.133 32.0941C89.133 32.0941 91.5777 23.791 98.2499 22.1385C104.922 20.4859 107.634 26.4562 114.16 22.3916Z" fill="#55A301"/>
<path d="M90.2839 31.1156C91.0605 30.1293 92.0716 29.3388 93.1432 28.6787L93.5486 28.4302C93.6837 28.3479 93.8266 28.2749 93.9664 28.2065C94.246 28.0621 94.524 27.9099 94.8175 27.7903C95.111 27.6707 95.3968 27.5356 95.6935 27.4238L96.5912 27.1131C96.7387 27.0588 96.894 27.0262 97.0463 26.9842L97.5122 26.8646L97.9781 26.7482C98.1335 26.7171 98.2888 26.6907 98.4441 26.6627C98.7547 26.6099 99.0653 26.5556 99.376 26.5074C99.6866 26.4593 99.9972 26.4515 100.319 26.4282L100.785 26.3925C100.94 26.3925 101.095 26.3925 101.251 26.3925L102.192 26.4065C102.269 26.4065 102.347 26.4065 102.426 26.4158L102.661 26.4406C102.816 26.4577 102.971 26.4717 103.127 26.4919C103.437 26.5292 103.748 26.568 104.059 26.6161C103.748 26.655 103.437 26.6814 103.127 26.7078C102.971 26.7218 102.816 26.7295 102.661 26.7404L102.431 26.7575C102.353 26.7575 102.276 26.7777 102.201 26.787L101.285 26.9004C101.129 26.9221 100.974 26.9299 100.828 26.9547L100.376 27.0339C100.075 27.0878 99.7736 27.1395 99.4722 27.1892L98.5808 27.3912L98.135 27.4874L97.697 27.6133C97.405 27.6971 97.1084 27.7686 96.8195 27.8618C95.6584 28.224 94.527 28.6753 93.4352 29.2114C92.3284 29.7478 91.2735 30.3852 90.2839 31.1156Z" fill="white"/>
</svg>
